:SAMPLES-PER-SECOND 24
:FULLY-SPECIFIED
:DEGREES
82
root  5.2738 35.5386 30.181 179.775 -68.2539 171.873
RightUpLeg  -18.1207 -12.0219 -21.0161
RightLeg  46.9871 6.76537 7.38619
RightFoot  -14.2457 0.197134 11.6216
RightToes  -1.74623e-010 0 -2.59999e-017
Spine  8.45219 -2.9003 -14.0151
Spine1  18.642 -7.42514 6.6323
HEad  -24.5083 -32.1992 18.8632
LeftShoulder1  1.9811 -3.06837 -23.9128
LeftArm  29.9506 -7.6082 -53.0573
LeftForeArm  92.1549 -79.0351 -104.197
LeftHand  0.282005 9.7744 8.43189
RightShoulder  3.44646 5.62823 31.8599
RightArm  -14.45 -14.5086 34.9552
RightForeArm  29.237 46.7321 9.78936
RightHand  0.242276 -7.62935 -13.6006
LeftUpLeg  -4.9893 13.376 16.5608
LeftLeg  44.1738 -4.9456 -4.7199
LeftFoot  -22.6464 -1.47088 -16.1507
LeftToes  -6.27559e-011 -2.10356e-011 8.24929e-012
83
root  4.61464 37.4026 30.1669 178.993 -66.8709 173.097
RightUpLeg  -12.3486 -12.4493 -20.3643
RightLeg  35.3564 8.76283 6.36676
RightFoot  -6.91673 -0.563997 13.2658
RightToes  -1.74623e-010 0 -2.59999e-017
Spine  5.82846 -2.90099 -12.9715
Spine1  17.8925 -6.4496 5.76457
HEad  -18.6468 -32.9101 17.7693
LeftShoulder1  1.98434 -2.97457 -24.4211
LeftArm  26.8584 4.39162 -48.3961
LeftForeArm  103.378 -78.3713 -114.622
LeftHand  0.125054 9.07389 5.23569
RightShoulder  3.33889 5.51631 31.1286
RightArm  -11.3225 -20.0503 35.998
RightForeArm  29.188 53.0539 12.5623
RightHand  0.141117 -7.17609 -11.0552
LeftUpLeg  0.335578 12.673 15.6334
LeftLeg  33.8847 -3.59185 -2.24395
LeftFoot  -14.2981 -0.353711 -17.3822
LeftToes  -6.27559e-011 -2.10356e-011 8.24929e-012
84
root  4.11204 39.4036 30.1924 178.945 -64.8822 173.79
RightUpLeg  -8.34783 -11.3835 -19.4928
RightLeg  23.9692 9.48132 4.3782
RightFoot  6.66212 -2.29625 14.6888
RightToes  -1.74623e-010 0 -2.59999e-017
Spine  3.76315 -2.75496 -11.985
Spine1  15.9174 -5.41684 5.35869
HEad  -12.12 -33.0992 15.3867
LeftShoulder1  1.99093 -3.03764 -24.2155
LeftArm  24.6089 14.2985 -45.0332
LeftForeArm  107.357 -77.944 -118.741
LeftHand  0.0726317 8.75298 3.91208
RightShoulder  3.10168 5.22484 29.6241
RightArm  -6.93036 -24.308 35.9083
RightForeArm  31.507 60.0171 16.7024
RightHand  -0.0604888 -6.49426 1.65657
LeftUpLeg  4.20771 12.7295 14.6934
LeftLeg  24.5398 -1.58631 -0.44245
LeftFoot  0.0655945 1.78621 -17.725
LeftToes  -6.27559e-011 -2.10356e-011 8.24929e-012
85
root  3.80496 40.8875 30.2924 177.865 -63.9525 175.174
RightUpLeg  -6.14291 -10.0519 -18.3874
RightLeg  16.4982 7.78121 2.38831
RightFoot  18.9758 -4.18671 15.8605
RightToes  -1.74623e-010 0 -2.59999e-017
Spine  2.63202 -3.05015 -10.67
Spine1  15.1873 -5.18634 5.04562
HEad  -10.2476 -32.8179 14.6182
LeftShoulder1  2.01286 -3.36943 -23.0095
LeftArm  21.8532 20.483 -43.7686
LeftForeArm  112.469 -77.4578 -122.998
LeftHand  0.115537 8.4995 5.69897
RightShoulder  2.79473 4.79525 27.7148
RightArm  -4.19283 -25.8343 35.6105
RightForeArm  31.4932 66.8306 23.7313
RightHand  -0.0844647 -5.79014 11.7933
LeftUpLeg  6.02022 13.5155 14.7285
LeftLeg  18.8176 -0.174196 0.154714
LeftFoot  12.0321 3.26578 -16.0589
LeftToes  -6.27559e-011 -2.10356e-011 8.24929e-012
86
root  3.6339 41.6212 30.4637 176.101 -64.3458 176.456
RightUpLeg  -3.95036 -10.9105 -17.8828
RightLeg  13.4333 6.11187 1.60462
RightFoot  20.6112 -4.13273 14.8369
RightToes  -1.74623e-010 0 -2.59999e-017
Spine  2.66111 -3.59894 -9.83504
Spine1  16.0348 -5.74998 5.24864
HEad  -12.3474 -32.3839 15.1861
LeftShoulder1  1.94329 -3.58924 -21.0011
LeftArm  19.3593 22.2597 -44.7386
LeftForeArm  115.589 -77.0756 -125.741
LeftHand  0.223552 8.71367 8.91345
RightShoulder  2.49851 4.38351 25.6415
RightArm  -2.63148 -24.8624 34.9255
RightForeArm  30.3415 72.4551 35.3792
RightHand  -0.183937 -6.64049 12.4647
LeftUpLeg  6.72731 12.9881 14.6699
LeftLeg  17.1922 0.507625 0.284881
LeftFoot  13.806 3.0064 -13.7814
LeftToes  -6.27559e-011 -2.10356e-011 8.24929e-012
87
root  3.62146 41.6999 30.6263 176.061 -64.2376 175.775
RightUpLeg  -3.35854 -10.1225 -18.0724
RightLeg  14.7913 5.53739 1.53106
RightFoot  17.0718 -2.66437 10.9543
RightToes  -1.74623e-010 0 -2.59999e-017
Spine  3.64074 -3.55698 -10.4365
Spine1  16.1262 -5.98579 5.61571
HEad  -14.5304 -32.1342 15.6507
LeftShoulder1  1.76503 -3.3336 -19.3043
LeftArm  18.6508 19.9241 -45.1816
LeftForeArm  114.539 -77.105 -125.328
LeftHand  0.335251 9.23069 11.036
RightShoulder  2.32921 4.20688 24.0989
RightArm  -2.18401 -22.6885 33.0147
RightForeArm  39.8938 76.7185 53.5698
RightHand  -0.1281 -6.62005 7.56373
LeftUpLeg  6.42665 12.9277 13.857
LeftLeg  18.5843 0.369905 0.416582
LeftFoot  12.6775 2.5074 -12.1251
LeftToes  -6.27559e-011 -2.10356e-011 8.24929e-012
